<svg width="43" height="43" viewBox="0 0 43 43" fill="none" xmlns="http://www.w3.org/2000/svg">
<g id="Orion_reload 1">
<rect width="43" height="43" rx="4" fill="#F16A1B"/>
<path id="layer2" d="M11.8667 16.899L10.0156 18.4773C10.5469 16.4132 11.6146 14.5264 13.1105 13.0083C14.6064 11.4902 16.4772 10.3947 18.5332 9.83308C20.5892 9.27144 22.7571 9.26362 24.8171 9.81039C26.8771 10.3572 28.7558 11.4391 30.2626 12.9464L33.1127 10.0956C31.0856 8.06918 28.5549 6.61975 25.7814 5.8966C23.0078 5.17345 20.0916 5.20272 17.3331 5.9814C14.5746 6.76009 12.0736 8.26003 10.0876 10.3267C8.10155 12.3935 6.70236 14.9522 6.03411 17.7395L4.70312 16.125L1.34375 18.1406L7.35233 26.0473L14.4829 19.9668L11.8667 16.899Z" stroke="white" stroke-width="2" stroke-miterlimit="10" stroke-linecap="round" stroke-linejoin="round"/>
<path id="layer1" d="M41.6562 24.859L36.0192 16.7603L29.0035 23.0678L31.699 26.0657L33.4056 24.5312C32.873 26.5943 31.8043 28.4799 30.3078 29.9967C28.8113 31.5135 26.9404 32.6076 24.8846 33.168C22.8289 33.7285 20.6615 33.7353 18.6023 33.1878C16.5431 32.6403 14.6653 31.558 13.1593 30.0506L10.3105 32.9027C12.3301 34.9216 14.8495 36.368 17.6112 37.094C20.373 37.82 23.278 37.7996 26.0293 37.0349C28.7806 36.2701 31.2794 34.7885 33.2704 32.7414C35.2613 30.6943 36.6729 28.1552 37.3609 25.3838L38.5434 26.9889L41.6562 24.859Z" stroke="white" stroke-width="2" stroke-miterlimit="10" stroke-linecap="round" stroke-linejoin="round"/>
</g>
</svg>
