<svg width="60" height="60" viewBox="0 0 60 60" fill="none" xmlns="http://www.w3.org/2000/svg">
<g id="Frame 35623">
<rect width="60" height="60" rx="4" fill="#C03221"/>
<g id="Group 33621">
<circle id="Ellipse 150" cx="29.75" cy="29.75" r="21.75" stroke="white"/>
<circle id="Ellipse 151" cx="22.1375" cy="24.3152" r="3.2625" fill="white"/>
<circle id="Ellipse 152" cx="37.3616" cy="24.3152" r="3.2625" fill="white"/>
<path id="Ellipse 153" d="M38.4522 34.0945C38.4522 35.237 38.2272 36.3683 37.79 37.4239C37.3528 38.4794 36.7119 39.4385 35.9041 40.2464C35.0962 41.0542 34.1371 41.6951 33.0816 42.1323C32.0261 42.5695 30.8947 42.7945 29.7522 42.7945C28.6097 42.7945 27.4784 42.5695 26.4229 42.1323C25.3674 41.6951 24.4083 41.0542 23.6004 40.2464C22.7925 39.4385 22.1517 38.4794 21.7145 37.4239C21.2773 36.3683 21.0522 35.237 21.0522 34.0945" stroke="white"/>
</g>
</g>
</svg>
