<svg width="28" height="28" viewBox="0 0 28 28" fill="none" xmlns="http://www.w3.org/2000/svg">
<g id="Iconly/Light/Setting">
<g id="Setting">
<path id="Path_33946" fill-rule="evenodd" clip-rule="evenodd" d="M24.2746 8.89418L23.5485 7.63407C22.9341 6.56783 21.5727 6.2 20.505 6.8118V6.8118C19.9968 7.11119 19.3903 7.19614 18.8194 7.04789C18.2484 6.89965 17.7599 6.5304 17.4615 6.02156C17.2696 5.69813 17.1664 5.32975 17.1625 4.95367V4.95367C17.1798 4.35072 16.9523 3.76643 16.5319 3.33391C16.1114 2.90139 15.5338 2.65747 14.9306 2.65772H13.4676C12.8767 2.65771 12.3101 2.89319 11.8932 3.31206C11.4763 3.73093 11.2436 4.29865 11.2464 4.8896V4.8896C11.2289 6.10971 10.2348 7.08957 9.01453 7.08945C8.63845 7.08554 8.27007 6.9824 7.94664 6.79044V6.79044C6.87894 6.17864 5.5175 6.54647 4.90317 7.61271L4.12361 8.89418C3.51002 9.95909 3.87284 11.3197 4.9352 11.9377V11.9377C5.62576 12.3363 6.05116 13.0732 6.05116 13.8705C6.05116 14.6679 5.62576 15.4047 4.9352 15.8034V15.8034C3.87419 16.4172 3.51097 17.7745 4.12361 18.8362V18.8362L4.86045 20.107C5.14829 20.6264 5.63124 21.0096 6.20243 21.172C6.77362 21.3343 7.38595 21.2623 7.90393 20.972V20.972C8.41313 20.6749 9.01992 20.5935 9.58943 20.7459C10.1589 20.8983 10.644 21.2718 10.9367 21.7836C11.1287 22.107 11.2318 22.4754 11.2357 22.8515V22.8515C11.2357 24.0841 12.235 25.0833 13.4676 25.0833H14.9306C16.1591 25.0834 17.1566 24.0906 17.1625 22.8621V22.8621C17.1597 22.2693 17.3939 21.7 17.8131 21.2808C18.2322 20.8616 18.8016 20.6274 19.3944 20.6303C19.7696 20.6403 20.1364 20.743 20.4623 20.9293V20.9293C21.5272 21.5429 22.8878 21.18 23.5058 20.1177V20.1177L24.2746 18.8362C24.5722 18.3254 24.6539 17.717 24.5016 17.1457C24.3493 16.5745 23.9755 16.0875 23.463 15.7927V15.7927C22.9506 15.4979 22.5768 15.011 22.4245 14.4397C22.2722 13.8685 22.3538 13.2601 22.6514 12.7493C22.845 12.4114 23.1251 12.1312 23.463 11.9377V11.9377C24.519 11.32 24.881 9.96737 24.2746 8.90486V8.90486V8.89418Z" stroke="white" stroke-width="1.5" stroke-linecap="round" stroke-linejoin="round"/>
<ellipse id="Ellipse_737" cx="14.2044" cy="13.8704" rx="3.07551" ry="3.07551" stroke="white" stroke-width="1.5" stroke-linecap="round" stroke-linejoin="round"/>
</g>
</g>
</svg>
