<svg width="20" height="20" viewBox="0 0 20 20" fill="none" xmlns="http://www.w3.org/2000/svg">
<g id="Iconly/Light/Add User">
<g id="Add User">
<path id="Stroke 1" fill-rule="evenodd" clip-rule="evenodd" d="M9.16384 12.8936C5.83933 12.8936 3 13.4017 3 15.4376C3 17.4735 5.82203 18 9.16384 18C12.4892 18 15.3277 17.491 15.3277 15.456C15.3277 13.4209 12.5065 12.8936 9.16384 12.8936Z" stroke="black" stroke-width="1.5" stroke-linecap="round" stroke-linejoin="round"/>
<path id="Stroke 3" fill-rule="evenodd" clip-rule="evenodd" d="M9.1637 9.98981C11.3457 9.98981 13.1144 8.20137 13.1144 5.99491C13.1144 3.78844 11.3457 2 9.1637 2C6.98253 2 5.21389 3.78844 5.21389 5.99491C5.20611 8.1935 6.96177 9.98194 9.13689 9.98981H9.1637Z" stroke="black" stroke-width="1.5" stroke-linecap="round" stroke-linejoin="round"/>
<path id="Stroke 5" d="M17.2308 7.17676V10.6837" stroke="black" stroke-width="1.5" stroke-linecap="round" stroke-linejoin="round"/>
<path id="Stroke 7" d="M18.9997 8.92946H15.4624" stroke="black" stroke-width="1.5" stroke-linecap="round" stroke-linejoin="round"/>
</g>
</g>
</svg>
