<svg width="24" height="25" viewBox="0 0 24 25" fill="none" xmlns="http://www.w3.org/2000/svg">
<path opacity="0.4" d="M12.0865 22.0132C11.9627 22.0132 11.8388 21.9847 11.7271 21.9269L8.12599 20.0628C7.10415 19.5333 6.30481 18.939 5.68063 18.2467C4.31449 16.7327 3.5544 14.7892 3.54232 12.7731L3.50004 6.13745C3.495 5.37161 3.98931 4.68421 4.72826 4.42534L11.3405 2.11997C11.7331 1.97975 12.1711 1.97779 12.5707 2.11311L19.2081 4.34003C19.9511 4.58811 20.4535 5.2706 20.4575 6.03546L20.4998 12.676C20.5129 14.6892 19.779 16.6405 18.434 18.1712C17.8168 18.8733 17.0245 19.4764 16.0128 20.0157L12.4439 21.922C12.3331 21.9818 12.2103 22.0122 12.0865 22.0132Z" fill="#8A92A6"/>
<path d="M11.3191 14.3341C11.1258 14.3351 10.9325 14.2655 10.7835 14.1223L8.86671 12.2788C8.57073 11.9924 8.56771 11.5277 8.86067 11.2394C9.15363 10.9501 9.63183 10.9471 9.92882 11.2325L11.308 12.5582L14.6756 9.23798C14.9695 8.9487 15.4477 8.94576 15.7437 9.23111C16.0407 9.51744 16.0437 9.98322 15.7508 10.2705L11.8517 14.1154C11.7047 14.2606 11.5124 14.3331 11.3191 14.3341Z" fill="#8A92A6"/>
</svg>
