<svg width="24" height="25" viewBox="0 0 24 25" fill="none" xmlns="http://www.w3.org/2000/svg">
<path opacity="0.4" d="M4.72276 21.1807C4.70976 21.1807 4.69776 21.1807 4.68376 21.1797C4.36876 21.1637 4.05976 21.0957 3.76576 20.9767C2.31876 20.3887 1.62076 18.7357 2.20776 17.2897L9.52876 4.46367C9.78076 4.00767 10.1628 3.62567 10.6288 3.36767C11.9938 2.61167 13.7198 3.10867 14.4748 4.47267L21.7478 17.2007C21.9098 17.5817 21.9788 17.8917 21.9958 18.2077C22.0348 18.9637 21.7768 19.6887 21.2708 20.2497C20.7648 20.8107 20.0698 21.1417 19.3148 21.1797L4.79476 21.1807H4.72276Z" fill="#8A92A6"/>
<path fill-rule="evenodd" clip-rule="evenodd" d="M11.1245 10.0342C11.1245 9.55218 11.5175 9.15918 11.9995 9.15918C12.4815 9.15918 12.8745 9.55218 12.8745 10.0342V12.8622C12.8745 13.3452 12.4815 13.7372 11.9995 13.7372C11.5175 13.7372 11.1245 13.3452 11.1245 12.8622V10.0342ZM11.1245 16.2833C11.1245 15.7983 11.5175 15.4033 11.9995 15.4033C12.4815 15.4033 12.8745 15.7933 12.8745 16.2723C12.8745 16.7653 12.4815 17.1583 11.9995 17.1583C11.5175 17.1583 11.1245 16.7653 11.1245 16.2833Z" fill="#8A92A6"/>
</svg>
