<svg width="24" height="25" viewBox="0 0 24 25" fill="none" xmlns="http://www.w3.org/2000/svg">
<path opacity="0.4" d="M22 12.0132C22 17.5372 17.523 22.0132 12 22.0132C6.477 22.0132 2 17.5372 2 12.0132C2 6.49118 6.477 2.01318 12 2.01318C17.523 2.01318 22 6.49118 22 12.0132Z" fill="#8A92A6"/>
<path fill-rule="evenodd" clip-rule="evenodd" d="M12.8701 12.6441C12.8701 13.1261 12.4771 13.5191 11.9951 13.5191C11.5131 13.5191 11.1201 13.1261 11.1201 12.6441V8.22412C11.1201 7.74212 11.5131 7.34912 11.9951 7.34912C12.4771 7.34912 12.8701 7.74212 12.8701 8.22412V12.6441ZM11.1251 15.8169C11.1251 15.3349 11.5161 14.9419 11.9951 14.9419C12.4881 14.9419 12.8801 15.3349 12.8801 15.8169C12.8801 16.2989 12.4881 16.6919 12.0051 16.6919C11.5201 16.6919 11.1251 16.2989 11.1251 15.8169Z" fill="#8A92A6"/>
</svg>
