<svg width="24" height="25" viewBox="0 0 24 25" fill="none" xmlns="http://www.w3.org/2000/svg">
<g id="Iconly/Bulk/Game">
<g id="Game">
<path id="Game 2" opacity="0.4" d="M13.3051 5.89561V6.07866C12.8144 6.06902 12.3237 6.06902 11.8331 6.06902V5.90525C11.8331 5.24051 11.2737 4.70102 10.6064 4.70102H9.63482C8.52589 4.70102 7.62305 3.81471 7.62305 2.73572C7.62305 2.34073 7.95671 2.01318 8.35906 2.01318C8.77123 2.01318 9.09508 2.34073 9.09508 2.73572C9.09508 3.02473 9.34042 3.25595 9.63482 3.25595H10.6064C12.0882 3.26558 13.2953 4.45054 13.3051 5.89561Z" fill="#8A92A6"/>
<path id="Game_2" fill-rule="evenodd" clip-rule="evenodd" d="M15.164 6.09598C15.4791 6.1003 15.7949 6.10463 16.1119 6.10787C19.5172 6.10787 22 8.53559 22 11.8882V16.1945C22 19.547 19.5172 21.9748 16.1119 21.9748C14.7478 22.0037 13.3837 22.0133 12.0098 22.0133C10.6359 22.0133 9.25221 22.0037 7.88813 21.9748C4.48283 21.9748 2 19.547 2 16.1945V11.8882C2 8.53559 4.48283 6.10787 7.89794 6.10787C9.18351 6.0886 10.4985 6.06934 11.8332 6.06934C12.3238 6.06934 12.8145 6.06934 13.3052 6.07897C13.9238 6.07897 14.5425 6.08745 15.164 6.09598ZM10.8518 14.759H9.82139V15.7802C9.82139 16.1752 9.48773 16.5028 9.08538 16.5028C8.67321 16.5028 8.34936 16.1752 8.34936 15.7802V14.759H7.30913C6.90677 14.759 6.57311 14.4411 6.57311 14.0365C6.57311 13.6415 6.90677 13.314 7.30913 13.314H8.34936V12.3024C8.34936 11.9074 8.67321 11.5799 9.08538 11.5799C9.48773 11.5799 9.82139 11.9074 9.82139 12.3024V13.314H10.8518C11.2542 13.314 11.5878 13.6415 11.5878 14.0365C11.5878 14.4411 11.2542 14.759 10.8518 14.759ZM15.0226 13.1309H15.1207C15.5231 13.1309 15.8567 12.813 15.8567 12.4084C15.8567 12.0134 15.5231 11.6859 15.1207 11.6859H15.0226C14.6104 11.6859 14.2866 12.0134 14.2866 12.4084C14.2866 12.813 14.6104 13.1309 15.0226 13.1309ZM16.7007 16.445H16.7988C17.2012 16.445 17.5348 16.127 17.5348 15.7224C17.5348 15.3274 17.2012 14.9999 16.7988 14.9999H16.7007C16.2885 14.9999 15.9647 15.3274 15.9647 15.7224C15.9647 16.127 16.2885 16.445 16.7007 16.445Z" fill="#8A92A6"/>
</g>
</g>
</svg>
