<svg width="24" height="25" viewBox="0 0 24 25" fill="none" xmlns="http://www.w3.org/2000/svg">
<path opacity="0.4" d="M16.191 2.01318H7.81C4.77 2.01318 3 3.79318 3 6.84318V17.1732C3 20.2732 4.77 22.0132 7.81 22.0132H16.191C19.28 22.0132 21 20.2732 21 17.1732V6.84318C21 3.79318 19.28 2.01318 16.191 2.01318Z" fill="#8A92A6"/>
<path fill-rule="evenodd" clip-rule="evenodd" d="M8.07996 6.66309V6.67309C7.64896 6.67309 7.29996 7.02309 7.29996 7.45309C7.29996 7.88309 7.64896 8.23309 8.07996 8.23309H11.069C11.5 8.23309 11.85 7.88309 11.85 7.44209C11.85 7.01309 11.5 6.66309 11.069 6.66309H8.07996ZM15.92 12.7531H8.07996C7.64896 12.7531 7.29996 12.4031 7.29996 11.9731C7.29996 11.5431 7.64896 11.1921 8.07996 11.1921H15.92C16.35 11.1921 16.7 11.5431 16.7 11.9731C16.7 12.4031 16.35 12.7531 15.92 12.7531ZM15.92 17.3231H8.07996C7.77996 17.3631 7.48996 17.2131 7.32996 16.9631C7.16996 16.7031 7.16996 16.3731 7.32996 16.1231C7.48996 15.8631 7.77996 15.7231 8.07996 15.7531H15.92C16.319 15.7931 16.62 16.1331 16.62 16.5431C16.62 16.9421 16.319 17.2831 15.92 17.3231Z" fill="#8A92A6"/>
</svg>
