<svg width="24" height="25" viewBox="0 0 24 25" fill="none" xmlns="http://www.w3.org/2000/svg">
<path fill-rule="evenodd" clip-rule="evenodd" d="M8.53162 2.94995C10.7165 1.68046 13.402 1.70265 15.5664 3.00808C17.7095 4.3401 19.012 6.71736 18.9998 9.27463C18.95 11.8151 17.5533 14.2032 15.8075 16.0493C14.7998 17.1196 13.6726 18.066 12.4488 18.8692C12.3228 18.9421 12.1848 18.9909 12.0415 19.0132C11.9036 19.0073 11.7693 18.9666 11.6508 18.8946C9.78243 17.6878 8.14334 16.1472 6.81233 14.3471C5.69859 12.8445 5.06584 11.0292 5 9.1476C4.99856 6.58543 6.34677 4.21945 8.53162 2.94995ZM9.79416 10.208C10.1617 11.114 11.0292 11.705 11.9916 11.705C12.6221 11.7096 13.2282 11.457 13.6748 11.0037C14.1214 10.5503 14.3715 9.93382 14.3692 9.29156C14.3726 8.31122 13.7955 7.4255 12.9073 7.04796C12.0191 6.67042 10.995 6.87553 10.3133 7.56753C9.63159 8.25953 9.42664 9.30191 9.79416 10.208Z" fill="#8A92A6"/>
<ellipse opacity="0.4" cx="12" cy="21.0132" rx="5" ry="1" fill="#8A92A6"/>
</svg>
