<svg width="24" height="25" viewBox="0 0 24 25" fill="none" xmlns="http://www.w3.org/2000/svg">
<g id="Iconly/Bulk/Filter">
<g id="Filter">
<path id="Fill 1" opacity="0.4" d="M10.0833 15.9712H3.50777C2.67555 15.9712 2 16.6349 2 17.4525C2 18.269 2.67555 18.9338 3.50777 18.9338H10.0833C10.9155 18.9338 11.5911 18.269 11.5911 17.4525C11.5911 16.6349 10.9155 15.9712 10.0833 15.9712Z" fill="#8A92A6"/>
<path id="Fill 4" opacity="0.4" d="M22.0001 6.39186C22.0001 5.57533 21.3246 4.91162 20.4934 4.91162H13.9179C13.0857 4.91162 12.4102 5.57533 12.4102 6.39186C12.4102 7.20948 13.0857 7.87318 13.9179 7.87318H20.4934C21.3246 7.87318 22.0001 7.20948 22.0001 6.39186Z" fill="#8A92A6"/>
<path id="Fill 6" d="M8.87774 6.39174C8.87774 8.25841 7.33886 9.7714 5.43887 9.7714C3.53999 9.7714 2 8.25841 2 6.39174C2 4.52617 3.53999 3.01318 5.43887 3.01318C7.33886 3.01318 8.87774 4.52617 8.87774 6.39174Z" fill="#8A92A6"/>
<path id="Fill 9" d="M22.0001 17.4124C22.0001 19.2779 20.4612 20.7909 18.5612 20.7909C16.6623 20.7909 15.1223 19.2779 15.1223 17.4124C15.1223 15.5457 16.6623 14.0327 18.5612 14.0327C20.4612 14.0327 22.0001 15.5457 22.0001 17.4124Z" fill="#8A92A6"/>
</g>
</g>
</svg>
