<svg width="24" height="25" viewBox="0 0 24 25" fill="none" xmlns="http://www.w3.org/2000/svg">
<path d="M12.012 14.8434C10.4075 14.8434 9.10962 13.5934 9.10962 12.0234C9.10962 10.4534 10.4075 9.19336 12.012 9.19336C13.6165 9.19336 14.8837 10.4534 14.8837 12.0234C14.8837 13.5934 13.6165 14.8434 12.012 14.8434Z" fill="#8A92A6"/>
<path opacity="0.4" d="M21.2301 14.3832C21.036 14.0832 20.76 13.7832 20.4023 13.5932C20.1162 13.4532 19.9322 13.2232 19.7687 12.9532C19.2475 12.0932 19.5541 10.9632 20.4228 10.4532C21.4447 9.88318 21.7718 8.61318 21.179 7.62318L20.4943 6.44318C19.9118 5.45318 18.6344 5.10318 17.6226 5.68318C16.7233 6.16318 15.5685 5.84318 15.0473 4.99318C14.8838 4.71318 14.7918 4.41318 14.8122 4.11318C14.8429 3.72318 14.7203 3.35318 14.5363 3.05318C14.1582 2.43318 13.4735 2.01318 12.7172 2.01318H11.2763C10.5302 2.03318 9.84553 2.43318 9.4674 3.05318C9.27323 3.35318 9.16081 3.72318 9.18125 4.11318C9.20169 4.41318 9.10972 4.71318 8.9462 4.99318C8.425 5.84318 7.27019 6.16318 6.38109 5.68318C5.35913 5.10318 4.09191 5.45318 3.49917 6.44318L2.81446 7.62318C2.23194 8.61318 2.55897 9.88318 3.57071 10.4532C4.43937 10.9632 4.74596 12.0932 4.23498 12.9532C4.06125 13.2232 3.87729 13.4532 3.59115 13.5932C3.24368 13.7832 2.93709 14.0832 2.77358 14.3832C2.39546 15.0032 2.4159 15.7832 2.79402 16.4332L3.49917 17.6332C3.87729 18.2732 4.58245 18.6732 5.31825 18.6732C5.66572 18.6732 6.0745 18.5732 6.40153 18.3732C6.65702 18.2032 6.96361 18.1432 7.30085 18.1432C8.31259 18.1432 9.16081 18.9732 9.18125 19.9632C9.18125 21.1132 10.1215 22.0132 11.3069 22.0132H12.6968C13.872 22.0132 14.8122 21.1132 14.8122 19.9632C14.8429 18.9732 15.6911 18.1432 16.7029 18.1432C17.0299 18.1432 17.3365 18.2032 17.6022 18.3732C17.9292 18.5732 18.3278 18.6732 18.6855 18.6732C19.411 18.6732 20.1162 18.2732 20.4943 17.6332L21.2097 16.4332C21.5776 15.7632 21.6083 15.0032 21.2301 14.3832Z" fill="#8A92A6"/>
</svg>
