<svg width="24" height="25" viewBox="0 0 24 25" fill="none" xmlns="http://www.w3.org/2000/svg">
<g id="Iconly/Bulk/3 User">
<g id="3 User">
<path id="Fill 1" d="M11.9491 14.5532C8.49909 14.5532 5.58813 15.117 5.58813 17.2927C5.58813 19.4694 8.51789 20.0133 11.9491 20.0133C15.3991 20.0133 18.31 19.4495 18.31 17.2738C18.31 15.0972 15.3803 14.5532 11.9491 14.5532Z" fill="#8A92A6"/>
<path id="Fill 3" opacity="0.4" d="M11.949 12.4802C14.2851 12.4802 16.1583 10.5962 16.1583 8.2467C16.1583 5.89625 14.2851 4.01318 11.949 4.01318C9.61293 4.01318 7.73975 5.89625 7.73975 8.2467C7.73975 10.5962 9.61293 12.4802 11.949 12.4802Z" fill="#8A92A6"/>
<path id="Fill 6" opacity="0.4" d="M21.0881 9.23241C21.6925 6.85495 19.9205 4.71973 17.664 4.71973C17.4187 4.71973 17.1841 4.74674 16.9549 4.79267C16.9244 4.79988 16.8904 4.81519 16.8725 4.8422C16.8519 4.87642 16.8671 4.92235 16.8895 4.95207C17.5673 5.90846 17.9568 7.07288 17.9568 8.32285C17.9568 9.52059 17.5996 10.6373 16.9728 11.564C16.9083 11.6594 16.9656 11.7882 17.0793 11.808C17.2369 11.8359 17.3981 11.8503 17.5629 11.8548C19.2059 11.8981 20.6807 10.8345 21.0881 9.23241Z" fill="#8A92A6"/>
<path id="Fill 8" d="M22.8092 14.8301C22.5083 14.1853 21.7821 13.7432 20.6781 13.5261C20.157 13.3983 18.7467 13.2181 17.435 13.2425C17.4153 13.2452 17.4045 13.2587 17.4027 13.2677C17.4 13.2803 17.4054 13.3019 17.4314 13.3154C18.0376 13.6171 20.3808 14.9292 20.0862 17.6966C20.0737 17.8164 20.1695 17.9199 20.2886 17.9019C20.8652 17.8191 22.3489 17.4985 22.8092 16.4998C23.0635 15.972 23.0635 15.3588 22.8092 14.8301Z" fill="#8A92A6"/>
<path id="Fill 11" opacity="0.4" d="M7.04483 4.79316C6.8165 4.74633 6.58101 4.72021 6.33567 4.72021C4.07926 4.72021 2.30726 6.85543 2.91255 9.2329C3.31906 10.835 4.79379 11.8985 6.43685 11.8553C6.60161 11.8508 6.76368 11.8355 6.92037 11.8085C7.03409 11.7887 7.09139 11.6599 7.02692 11.5644C6.40014 10.6369 6.04288 9.52108 6.04288 8.32334C6.04288 7.07247 6.43327 5.90805 7.11109 4.95256C7.13258 4.92284 7.1487 4.87691 7.12721 4.84269C7.1093 4.81477 7.07617 4.80036 7.04483 4.79316Z" fill="#8A92A6"/>
<path id="Fill 13" d="M3.32156 13.5259C2.21752 13.7429 1.49225 14.1851 1.19139 14.8299C0.936203 15.3585 0.936203 15.9718 1.19139 16.5004C1.65163 17.4982 3.13531 17.8197 3.71195 17.9017C3.83104 17.9197 3.92595 17.817 3.91342 17.6964C3.61883 14.9298 5.9621 13.6177 6.56918 13.3161C6.59425 13.3016 6.59962 13.2809 6.59694 13.2674C6.59515 13.2584 6.5853 13.2449 6.5656 13.2431C5.25294 13.2179 3.84358 13.398 3.32156 13.5259Z" fill="#8A92A6"/>
</g>
</g>
</svg>
