<svg width="24" height="25" viewBox="0 0 24 25" fill="none" xmlns="http://www.w3.org/2000/svg">
<path opacity="0.4" d="M21.25 13.4896C20.429 13.4896 19.761 12.8277 19.761 12.0142C19.761 11.1997 20.429 10.5378 21.25 10.5378C21.449 10.5378 21.64 10.4595 21.78 10.3208C21.921 10.1811 22 9.99183 22 9.79464L21.999 7.11733C21.999 4.85421 20.14 3.01318 17.856 3.01318H6.144C3.86 3.01318 2.001 4.85421 2.001 7.11733L2 9.88085C2 10.078 2.079 10.2673 2.22 10.407C2.36 10.5457 2.551 10.624 2.75 10.624C3.599 10.624 4.239 11.2215 4.239 12.0142C4.239 12.8277 3.571 13.4896 2.75 13.4896C2.336 13.4896 2 13.8225 2 14.2327V16.908C2 19.1712 3.858 21.0132 6.143 21.0132H17.857C20.142 21.0132 22 19.1712 22 16.908V14.2327C22 13.8225 21.664 13.4896 21.25 13.4896Z" fill="#8A92A6"/>
<path d="M15.4306 11.6019L14.2516 12.7499L14.5306 14.3729C14.5786 14.6539 14.4656 14.9309 14.2346 15.0969C14.0056 15.2649 13.7066 15.2859 13.4546 15.1519L11.9996 14.3869L10.5416 15.1529C10.4336 15.2099 10.3156 15.2399 10.1986 15.2399C10.0456 15.2399 9.89458 15.1919 9.76458 15.0979C9.53458 14.9309 9.42158 14.6539 9.46958 14.3729L9.74758 12.7499L8.56858 11.6019C8.36458 11.4039 8.29358 11.1129 8.38158 10.8419C8.47058 10.5719 8.70058 10.3799 8.98158 10.3399L10.6076 10.1029L11.3366 8.62587C11.4636 8.37187 11.7176 8.21387 11.9996 8.21387H12.0016C12.2846 8.21487 12.5386 8.37287 12.6636 8.62687L13.3926 10.1029L15.0216 10.3409C15.2996 10.3799 15.5296 10.5719 15.6176 10.8419C15.7066 11.1129 15.6356 11.4039 15.4306 11.6019Z" fill="#8A92A6"/>
</svg>
